<svg xmlns="http://www.w3.org/2000/svg" xmlns:xlink="http://www.w3.org/1999/xlink" width="1600" zoomAndPan="magnify" viewBox="0 0 1200 1199.999942" height="1600" preserveAspectRatio="xMidYMid meet" version="1.0"><defs><g/><clipPath id="ba1fc4ce05"><path d="M 228.617188 228.617188 L 971.785156 228.617188 L 971.785156 971.117188 L 228.617188 971.117188 Z M 228.617188 228.617188 " clip-rule="nonzero"/></clipPath><clipPath id="7448e75af4"><path d="M 260.960938 260.960938 L 938.210938 260.960938 L 938.210938 938.210938 L 260.960938 938.210938 Z M 260.960938 260.960938 " clip-rule="nonzero"/></clipPath><clipPath id="436ea6a152"><path d="M 374.441406 374.585938 L 825 374.585938 L 825 830 L 374.441406 830 Z M 374.441406 374.585938 " clip-rule="nonzero"/></clipPath><clipPath id="e4f2c6ec57"><path d="M 120 840 L 1123.5 840 L 1123.5 1005 L 120 1005 Z M 120 840 " clip-rule="nonzero"/></clipPath><clipPath id="8d2b303bab"><path d="M 208 795.832031 L 1035 795.832031 L 1035 995 L 208 995 Z M 208 795.832031 " clip-rule="nonzero"/></clipPath></defs><g clip-path="url(#ba1fc4ce05)"><path fill="#ff5f00" d="M 600.203125 262.328125 C 413.917969 262.328125 262.363281 413.765625 262.363281 599.917969 C 262.363281 786.054688 413.917969 937.496094 600.203125 937.496094 C 786.496094 937.496094 938.050781 786.054688 938.050781 599.917969 C 938.050781 413.765625 786.496094 262.328125 600.203125 262.328125 Z M 600.203125 971.214844 C 395.3125 971.214844 228.617188 804.648438 228.617188 599.917969 C 228.617188 395.175781 395.3125 228.609375 600.203125 228.609375 C 805.101562 228.609375 971.796875 395.175781 971.796875 599.917969 C 971.796875 804.648438 805.101562 971.214844 600.203125 971.214844 " fill-opacity="1" fill-rule="nonzero"/></g><g clip-path="url(#7448e75af4)"><path fill="#fffffc" d="M 938.210938 599.585938 C 938.210938 605.128906 938.074219 610.667969 937.804688 616.203125 C 937.53125 621.738281 937.125 627.261719 936.582031 632.777344 C 936.039062 638.292969 935.359375 643.789062 934.546875 649.273438 C 933.734375 654.753906 932.785156 660.214844 931.703125 665.648438 C 930.625 671.082031 929.410156 676.488281 928.0625 681.863281 C 926.714844 687.242188 925.238281 692.582031 923.628906 697.882812 C 922.019531 703.1875 920.28125 708.449219 918.417969 713.664062 C 916.550781 718.882812 914.554688 724.050781 912.433594 729.171875 C 910.3125 734.292969 908.070312 739.355469 905.699219 744.367188 C 903.328125 749.375 900.839844 754.324219 898.226562 759.210938 C 895.613281 764.101562 892.882812 768.921875 890.035156 773.675781 C 887.183594 778.425781 884.222656 783.109375 881.140625 787.714844 C 878.0625 792.324219 874.875 796.851562 871.570312 801.304688 C 868.269531 805.753906 864.863281 810.125 861.347656 814.40625 C 857.832031 818.691406 854.210938 822.886719 850.492188 826.992188 C 846.769531 831.097656 842.949219 835.109375 839.03125 839.03125 C 835.109375 842.949219 831.097656 846.769531 826.992188 850.492188 C 822.886719 854.210938 818.691406 857.832031 814.40625 861.347656 C 810.125 864.863281 805.753906 868.269531 801.304688 871.570312 C 796.851562 874.875 792.324219 878.0625 787.714844 881.140625 C 783.109375 884.222656 778.425781 887.183594 773.675781 890.035156 C 768.921875 892.882812 764.101562 895.613281 759.210938 898.226562 C 754.324219 900.839844 749.375 903.328125 744.367188 905.699219 C 739.355469 908.070312 734.292969 910.3125 729.171875 912.433594 C 724.050781 914.554688 718.882812 916.550781 713.664062 918.417969 C 708.449219 920.28125 703.1875 922.019531 697.882812 923.628906 C 692.582031 925.238281 687.242188 926.714844 681.863281 928.0625 C 676.488281 929.410156 671.082031 930.621094 665.648438 931.703125 C 660.214844 932.785156 654.753906 933.734375 649.273438 934.546875 C 643.789062 935.359375 638.292969 936.035156 632.777344 936.582031 C 627.261719 937.125 621.738281 937.53125 616.203125 937.804688 C 610.667969 938.074219 605.128906 938.210938 599.585938 938.210938 C 594.042969 938.210938 588.503906 938.074219 582.96875 937.804688 C 577.433594 937.53125 571.910156 937.125 566.394531 936.582031 C 560.878906 936.039062 555.382812 935.359375 549.898438 934.546875 C 544.417969 933.734375 538.957031 932.785156 533.523438 931.703125 C 528.089844 930.621094 522.683594 929.410156 517.308594 928.0625 C 511.929688 926.714844 506.589844 925.238281 501.289062 923.628906 C 495.984375 922.019531 490.722656 920.28125 485.507812 918.417969 C 480.289062 916.550781 475.121094 914.554688 470 912.433594 C 464.878906 910.3125 459.816406 908.070312 454.804688 905.699219 C 449.796875 903.328125 444.847656 900.839844 439.960938 898.226562 C 435.070312 895.613281 430.25 892.882812 425.496094 890.035156 C 420.746094 887.183594 416.0625 884.222656 411.457031 881.140625 C 406.847656 878.0625 402.320312 874.875 397.867188 871.570312 C 393.417969 868.269531 389.046875 864.863281 384.765625 861.347656 C 380.480469 857.832031 376.285156 854.210938 372.179688 850.492188 C 368.074219 846.769531 364.0625 842.949219 360.140625 839.03125 C 356.222656 835.109375 352.402344 831.097656 348.679688 826.992188 C 344.960938 822.886719 341.339844 818.691406 337.824219 814.40625 C 334.308594 810.125 330.902344 805.753906 327.601562 801.304688 C 324.296875 796.851562 321.109375 792.324219 318.03125 787.714844 C 314.949219 783.109375 311.988281 778.425781 309.136719 773.675781 C 306.289062 768.921875 303.558594 764.101562 300.945312 759.210938 C 298.332031 754.324219 295.84375 749.375 293.472656 744.367188 C 291.101562 739.355469 288.859375 734.292969 286.738281 729.171875 C 284.617188 724.050781 282.621094 718.882812 280.753906 713.664062 C 278.890625 708.449219 277.152344 703.1875 275.542969 697.882812 C 273.933594 692.582031 272.457031 687.242188 271.109375 681.863281 C 269.761719 676.488281 268.546875 671.082031 267.46875 665.648438 C 266.386719 660.214844 265.4375 654.753906 264.625 649.273438 C 263.8125 643.789062 263.136719 638.292969 262.589844 632.777344 C 262.046875 627.261719 261.640625 621.738281 261.367188 616.203125 C 261.097656 610.667969 260.960938 605.128906 260.960938 599.585938 C 260.960938 594.042969 261.097656 588.503906 261.367188 582.96875 C 261.640625 577.433594 262.046875 571.910156 262.589844 566.394531 C 263.136719 560.878906 263.8125 555.382812 264.625 549.898438 C 265.4375 544.417969 266.386719 538.957031 267.46875 533.523438 C 268.546875 528.089844 269.761719 522.683594 271.109375 517.308594 C 272.457031 511.929688 273.933594 506.589844 275.542969 501.289062 C 277.152344 495.984375 278.890625 490.722656 280.753906 485.507812 C 282.621094 480.289062 284.617188 475.121094 286.738281 470 C 288.859375 464.878906 291.101562 459.816406 293.472656 454.804688 C 295.84375 449.796875 298.332031 444.847656 300.945312 439.960938 C 303.558594 435.070312 306.289062 430.25 309.136719 425.496094 C 311.988281 420.746094 314.949219 416.0625 318.03125 411.457031 C 321.109375 406.847656 324.296875 402.320312 327.601562 397.867188 C 330.902344 393.417969 334.308594 389.046875 337.824219 384.765625 C 341.339844 380.480469 344.960938 376.285156 348.679688 372.179688 C 352.402344 368.074219 356.222656 364.0625 360.140625 360.140625 C 364.0625 356.222656 368.074219 352.402344 372.179688 348.679688 C 376.285156 344.960938 380.480469 341.339844 384.765625 337.824219 C 389.046875 334.308594 393.417969 330.902344 397.867188 327.601562 C 402.320312 324.296875 406.847656 321.109375 411.457031 318.03125 C 416.0625 314.949219 420.746094 311.988281 425.496094 309.136719 C 430.25 306.289062 435.070312 303.558594 439.960938 300.945312 C 444.847656 298.332031 449.796875 295.84375 454.804688 293.472656 C 459.816406 291.101562 464.878906 288.859375 470 286.738281 C 475.121094 284.617188 480.289062 282.621094 485.507812 280.753906 C 490.722656 278.886719 495.984375 277.152344 501.289062 275.542969 C 506.589844 273.933594 511.929688 272.457031 517.308594 271.109375 C 522.683594 269.761719 528.089844 268.546875 533.523438 267.46875 C 538.957031 266.386719 544.417969 265.4375 549.898438 264.625 C 555.382812 263.8125 560.878906 263.136719 566.394531 262.589844 C 571.910156 262.046875 577.433594 261.640625 582.96875 261.367188 C 588.503906 261.097656 594.042969 260.960938 599.585938 260.960938 C 605.128906 260.960938 610.667969 261.097656 616.203125 261.367188 C 621.738281 261.640625 627.261719 262.046875 632.777344 262.589844 C 638.292969 263.136719 643.789062 263.8125 649.273438 264.625 C 654.753906 265.4375 660.214844 266.386719 665.648438 267.46875 C 671.082031 268.546875 676.488281 269.761719 681.863281 271.109375 C 687.242188 272.457031 692.582031 273.933594 697.882812 275.542969 C 703.1875 277.152344 708.449219 278.886719 713.664062 280.753906 C 718.882812 282.621094 724.050781 284.617188 729.171875 286.738281 C 734.292969 288.859375 739.355469 291.101562 744.367188 293.472656 C 749.375 295.84375 754.324219 298.332031 759.210938 300.945312 C 764.101562 303.558594 768.921875 306.289062 773.675781 309.136719 C 778.425781 311.988281 783.109375 314.949219 787.714844 318.03125 C 792.324219 321.109375 796.851562 324.296875 801.304688 327.601562 C 805.753906 330.902344 810.125 334.308594 814.40625 337.824219 C 818.691406 341.339844 822.886719 344.960938 826.992188 348.679688 C 831.097656 352.402344 835.109375 356.222656 839.03125 360.140625 C 842.949219 364.0625 846.769531 368.074219 850.492188 372.179688 C 854.210938 376.285156 857.832031 380.480469 861.347656 384.765625 C 864.863281 389.046875 868.269531 393.417969 871.570312 397.867188 C 874.875 402.320312 878.0625 406.847656 881.140625 411.457031 C 884.222656 416.0625 887.183594 420.746094 890.035156 425.496094 C 892.882812 430.25 895.613281 435.070312 898.226562 439.960938 C 900.839844 444.847656 903.328125 449.796875 905.699219 454.804688 C 908.070312 459.816406 910.3125 464.878906 912.433594 470 C 914.554688 475.121094 916.550781 480.289062 918.417969 485.507812 C 920.28125 490.722656 922.019531 495.984375 923.628906 501.289062 C 925.238281 506.589844 926.714844 511.929688 928.0625 517.308594 C 929.410156 522.683594 930.625 528.089844 931.703125 533.523438 C 932.785156 538.957031 933.734375 544.417969 934.546875 549.898438 C 935.359375 555.382812 936.039062 560.878906 936.582031 566.394531 C 937.125 571.910156 937.53125 577.433594 937.804688 582.96875 C 938.074219 588.503906 938.210938 594.042969 938.210938 599.585938 Z M 938.210938 599.585938 " fill-opacity="1" fill-rule="nonzero"/></g><g clip-path="url(#436ea6a152)"><path fill="#eb001b" d="M 731.027344 543.507812 C 710.589844 564.773438 689.613281 585.882812 671.882812 609.546875 C 675.917969 617.449219 683.269531 624.515625 690.695312 629.375 C 711.863281 615.722656 730.332031 597.824219 749.792969 582.074219 C 752.308594 579.019531 759.625 575.945312 755.164062 571.371094 C 748.5625 560.886719 740.824219 550.839844 731.417969 543.113281 L 731.023438 543.503906 Z M 657.566406 601.421875 C 657.421875 601.46875 657.628906 601.503906 657.566406 601.421875 Z M 688.207031 501.445312 C 670.203125 520.289062 655.589844 543.125 639.160156 563.707031 C 634.625 570.757812 627.433594 577.605469 624.871094 585.21875 C 635.042969 592.125 646.578125 598.070312 658.308594 601.378906 C 674.988281 587.714844 688.074219 569.570312 703.046875 553.835938 C 708.390625 546.695312 717.023438 539.554688 720.027344 531.628906 C 710.757812 520.585938 700.589844 509.429688 688.644531 501.140625 Z M 537.925781 484.410156 C 524.082031 498.082031 514.539062 516.242188 502.375 531.738281 C 492.578125 546.320312 481.007812 560.160156 472.496094 575.390625 C 475.585938 588.589844 486.332031 598.757812 493.015625 610.316406 C 514.828125 643.203125 538.242188 675.207031 558.046875 709.261719 C 558.734375 727.71875 552.710938 745.8125 551.046875 764.160156 C 548.507812 785.425781 543.21875 806.945312 542.550781 828.109375 C 569.261719 830.398438 596.324219 829.183594 623.128906 828.503906 C 627.605469 826.625 624.585938 819.417969 626.324219 815.667969 C 629.273438 780.367188 633.53125 745.042969 635.132812 709.699219 C 630.792969 708.734375 621.101562 708.308594 624.132812 701.3125 C 626.773438 695.773438 638.644531 694.652344 635.394531 687.03125 C 620.292969 657.625 602.507812 629.050781 585.625 600.421875 C 581.707031 592.507812 575.617188 586.167969 566.890625 583.972656 C 558.464844 579.257812 546.886719 579.078125 540.195312 571.8125 C 537.953125 562.960938 550.75 563.558594 555.472656 560.453125 C 555.269531 552.914062 546.792969 545.109375 551.0625 537.828125 C 558.109375 534.519531 563.4375 544.3125 568.59375 547.59375 C 579.335938 559.597656 596.6875 553.558594 610.339844 552.332031 C 616.164062 550.492188 626.109375 552.332031 626.3125 543.726562 C 627.5625 536.136719 631.984375 524.058594 621.949219 520.488281 C 594.464844 507.84375 566.550781 494.285156 537.925781 484.414062 Z M 640.105469 456.503906 C 628.902344 467.535156 621.535156 482.335938 613.070312 495.597656 C 609.921875 498.847656 610.960938 501.542969 615.050781 502.976562 C 623.582031 509.082031 639.464844 511.988281 639.015625 525.339844 C 639.109375 530.75 637.199219 537.578125 638.054688 542.109375 C 652.183594 526.140625 665.828125 509.363281 677.164062 491.398438 C 666.074219 478.832031 654.597656 465.941406 640.847656 456.546875 C 640.613281 456.515625 640.347656 456.425781 640.105469 456.503906 Z M 593.050781 424.136719 C 584.027344 428.121094 579.789062 439.164062 573.148438 446.238281 C 566.886719 455.898438 558.007812 464.257812 553.636719 474.890625 C 558.660156 479.929688 567.925781 481.21875 574.414062 484.980469 C 581.671875 487.625 589.171875 492.191406 596.457031 493.542969 C 607.113281 480.171875 617.195312 465.710938 625.132812 450.519531 C 624.039062 444.566406 616.566406 441.417969 612.660156 437.101562 C 606.410156 433.1875 600.671875 425.0625 593.050781 424.136719 Z M 761.003906 600.203125 C 760.859375 600.25 761.0625 600.285156 761.003906 600.203125 Z M 568.757812 527.691406 C 568.613281 527.738281 568.816406 527.773438 568.757812 527.691406 Z M 375.796875 374.585938 C 375.394531 374.582031 375.0625 374.738281 374.835938 375.023438 C 374.554688 375.375 374.523438 375.605469 374.792969 376.203125 C 375.789062 378.414062 381.40625 388.554688 394.695312 412.238281 L 404.167969 429.140625 L 476.714844 487.492188 C 491.261719 499.199219 496.65625 503.535156 506.265625 511.253906 C 507.269531 509.824219 508.257812 508.394531 509.277344 506.972656 C 501.96875 501.140625 492.339844 493.445312 487.015625 489.195312 C 454.15625 462.988281 418.515625 434.144531 417.828125 433.203125 C 417.683594 433.003906 417.621094 432.734375 417.699219 432.636719 C 417.976562 432.289062 425.5625 430.257812 426.820312 430.1875 C 427.246094 430.164062 430.207031 432.46875 460.300781 456.441406 C 471.96875 465.730469 494.339844 483.628906 514.558594 499.769531 C 518.683594 494.269531 522.996094 488.941406 527.523438 483.785156 C 525.375 482.085938 524.609375 481.464844 521.671875 479.152344 C 511.078125 470.800781 488.589844 452.980469 471.699219 439.53125 L 441.011719 415.070312 L 440.707031 410.789062 C 440.261719 404.492188 440.277344 403.242188 440.75 403.191406 C 441.277344 403.132812 454.445312 413.519531 533.808594 476.875 C 534.074219 476.601562 534.328125 476.316406 534.59375 476.042969 L 534.769531 475.871094 L 535.773438 474.867188 C 537.191406 475.324219 538.597656 475.824219 540.007812 476.308594 C 531.554688 469.550781 520.296875 460.570312 513.207031 454.90625 L 433.679688 391.351562 L 432.152344 390.914062 C 431.320312 390.6875 422.386719 388.03125 412.292969 385.019531 C 386.425781 377.296875 376.96875 374.589844 375.800781 374.578125 Z M 414.90625 391.316406 C 415.835938 391.121094 425.3125 393.730469 430.269531 395.550781 C 432.570312 396.398438 433.679688 397.363281 433.980469 398.738281 C 434.21875 399.839844 434.167969 401.957031 433.847656 405.992188 C 433.539062 409.921875 433.289062 411.394531 432.496094 413.589844 C 431.910156 415.210938 431.667969 415.621094 430.3125 417.390625 C 428.683594 419.515625 428.03125 420.128906 425.644531 421.671875 C 421.964844 424.042969 410.15625 428.394531 408.925781 427.828125 C 408.609375 427.683594 408.132812 426.910156 407.222656 425.121094 C 406.523438 423.75 404.949219 420.710938 403.730469 418.351562 C 401.058594 413.179688 399.695312 410.300781 399.800781 409.964844 C 399.847656 409.828125 401.164062 408.941406 402.683594 408 C 406.324219 405.742188 407.320312 405.03125 408.75 403.632812 C 410.816406 401.609375 411.453125 400.335938 413.8125 393.410156 C 414.410156 391.660156 414.566406 391.382812 414.90625 391.316406 Z M 631.363281 553.054688 C 631.074219 553.40625 630.761719 553.738281 630.445312 554.058594 C 630.964844 554.476562 631.40625 554.863281 631.929688 555.28125 C 631.734375 554.542969 631.539062 553.796875 631.363281 553.054688 Z M 562.746094 553.753906 C 563.3125 554.839844 563.621094 555.957031 563.792969 557.074219 C 568.484375 560.839844 572.710938 564.195312 581.253906 571.09375 C 606.445312 591.433594 612.097656 595.953125 612.417969 595.945312 C 612.738281 595.945312 621.03125 602.5625 658.601562 632.808594 C 693.320312 660.761719 704.464844 669.652344 704.648438 669.585938 C 704.835938 669.519531 715.542969 678.082031 748.867188 704.921875 L 792.820312 740.300781 L 797.753906 739.863281 C 802.886719 739.378906 805.949219 738.796875 808.929688 737.8125 C 812.160156 736.742188 815.277344 735.054688 817.527344 733.09375 C 819.082031 731.742188 820.839844 729.554688 821.847656 727.722656 C 824.539062 722.824219 825.109375 717.5 824.25 706.496094 L 824.03125 703.304688 L 794.175781 679.371094 C 783.472656 670.792969 748.539062 642.894531 718.75 619.09375 C 717.59375 620 716.421875 620.90625 715.257812 621.804688 C 732.046875 635.203125 750.421875 649.890625 760.785156 658.144531 L 791.601562 682.644531 L 791.949219 686.007812 C 792.148438 687.847656 792.539062 690.199219 792.78125 691.25 C 793.019531 692.300781 793.238281 693.523438 793.257812 693.957031 C 793.300781 694.785156 793.242188 695 792.953125 694.964844 C 792.441406 694.898438 782.128906 687.042969 762.53125 671.726562 C 748.523438 660.78125 720.503906 638.324219 720.324219 637.921875 C 720.242188 637.742188 714.605469 633.195312 707.578125 627.65625 C 702.039062 631.738281 696.402344 635.675781 690.683594 639.492188 C 688.460938 638.160156 686.285156 636.738281 684.179688 635.210938 C 695.632812 644.351562 716.476562 661.023438 725.515625 668.234375 C 762.207031 697.492188 779.019531 710.980469 779.117188 711.253906 C 779.328125 711.832031 778.0625 712.277344 773.265625 713.21875 C 771.398438 713.585938 769.671875 713.9375 769.425781 714.007812 C 769.003906 714.121094 768.679688 713.90625 762.398438 709.070312 C 758.769531 706.277344 743.660156 694.277344 728.875 682.425781 C 714.085938 670.582031 682.34375 645.207031 658.335938 626.039062 C 637.019531 609.015625 603.792969 582.503906 578.632812 562.398438 C 572.753906 561.167969 567.296875 558.5625 562.746094 553.75 Z M 621.582031 558.949219 C 619.488281 559.503906 617.300781 559.8125 615.121094 559.824219 C 608.453125 561.003906 601.097656 562.488281 593.820312 563.058594 C 602.738281 570.179688 608.738281 574.996094 617.085938 581.664062 C 617.515625 579.695312 618.355469 577.792969 619.574219 576.203125 C 622.652344 572.367188 625.65625 568.457031 628.609375 564.5 C 627.121094 563.304688 624.089844 560.933594 621.582031 558.953125 Z M 649.125 607.214844 C 658.363281 614.589844 669.648438 623.601562 677.847656 630.144531 C 671.257812 624.273438 665.738281 617.261719 662.132812 609.09375 C 661.53125 609.625 660.949219 610.179688 660.34375 610.707031 C 656.546875 609.738281 652.804688 608.558594 649.125 607.214844 Z M 800.152344 690.023438 C 800.714844 690.171875 802.867188 691.773438 809.757812 697.011719 C 816.902344 702.449219 818.867188 704.191406 819.488281 705.574219 C 819.914062 706.515625 820.199219 709.929688 820.058594 712.78125 C 819.921875 715.523438 819.046875 719.4375 818.09375 721.648438 C 817.148438 723.839844 814.519531 727.402344 812.722656 728.941406 C 809.832031 731.417969 805.851562 733.476562 800.152344 735.363281 L 796.574219 736.542969 L 795.832031 736.105469 C 795.417969 735.867188 791.75 733.039062 787.667969 729.859375 C 780.453125 724.242188 775.289062 719.925781 775.230469 719.375 C 775.214844 719.25 776.160156 719.035156 777.324219 718.894531 C 781.136719 718.4375 787.546875 716.121094 790.375 714.179688 C 794.433594 711.394531 796.808594 708.320312 798.144531 704.21875 C 798.964844 701.710938 799.3125 699.355469 799.585938 694.566406 C 799.722656 692.195312 799.898438 690.167969 799.976562 690.070312 C 800.003906 690.039062 800.074219 690.003906 800.152344 690.027344 Z M 600.8125 594.171875 C 599.726562 597.164062 605.589844 603.945312 607.140625 608.148438 C 624.382812 640.355469 644.363281 671.199219 661.703125 703.238281 C 663.300781 709.898438 654.832031 708.414062 651.007812 709.875 C 645.382812 720.527344 647.65625 733.957031 645.378906 745.777344 C 643.480469 772.628906 638.4375 799.441406 638.875 826.363281 C 640.753906 831.335938 649.074219 827.976562 653.148438 829.246094 C 664.78125 828.683594 677.484375 830.769531 688.589844 827.847656 C 691.308594 799.859375 689.289062 771.464844 689.945312 743.332031 C 690.464844 734.277344 687.167969 723.789062 696.054688 717.824219 C 706.238281 707.042969 713.71875 694.527344 719.277344 681.132812 C 710.042969 673.742188 704.804688 669.566406 704.699219 669.605469 C 704.511719 669.671875 693.367188 660.78125 658.648438 632.828125 C 621.082031 602.578125 612.746094 595.914062 612.425781 595.917969 C 612.339844 595.917969 611.828125 595.554688 610.765625 594.738281 C 607.484375 594.21875 604.136719 594.089844 600.8125 594.171875 Z M 733.984375 613.609375 C 729.679688 615.84375 725.605469 618.503906 721.585938 621.339844 C 725.902344 624.789062 728.535156 626.890625 732.628906 630.164062 C 733.6875 624.609375 734.882812 618.878906 733.984375 613.609375 Z M 733.984375 613.609375 " fill-opacity="1" fill-rule="nonzero"/></g><g clip-path="url(#e4f2c6ec57)"><path fill="#f79e1b" d="M 1080.746094 923.847656 C 1095.039062 949.429688 1109.304688 974.417969 1123.519531 998.824219 C 1074.320312 1005.824219 1024.371094 1005.824219 975.179688 998.824219 C 975.179688 945.964844 975.179688 893.113281 975.179688 840.261719 C 1024.375 847.25 1074.320312 847.25 1123.519531 840.261719 C 1109.304688 868.703125 1095.039062 896.570312 1080.746094 923.847656 Z M 120.082031 840.261719 C 134.289062 868.703125 148.558594 896.570312 162.855469 923.847656 C 148.558594 949.429688 134.289062 974.417969 120.082031 998.824219 C 169.277344 1005.824219 219.21875 1005.824219 268.417969 998.824219 C 268.417969 945.964844 268.417969 893.113281 268.417969 840.261719 C 219.21875 847.25 169.277344 847.25 120.082031 840.261719 Z M 120.082031 840.261719 " fill-opacity="1" fill-rule="nonzero"/></g><path fill="#ff5f00" d="M 1034.675781 895.34375 L 1034.675781 962.351562 L 975.179688 998.824219 L 975.179688 895.34375 Z M 208.925781 962.355469 L 268.417969 998.824219 L 268.417969 895.34375 L 208.925781 895.34375 Z M 208.925781 962.355469 " fill-opacity="1" fill-rule="nonzero"/><g clip-path="url(#8d2b303bab)"><path fill="#eb001b" d="M 1034.675781 795.855469 C 1034.675781 851.351562 1034.675781 906.855469 1034.675781 962.355469 C 761.125 1005.65625 482.46875 1005.65625 208.925781 962.355469 C 208.925781 906.855469 208.925781 851.351562 208.925781 795.855469 C 482.46875 839.15625 761.125 839.15625 1034.675781 795.855469 Z M 1034.675781 795.855469 " fill-opacity="1" fill-rule="nonzero"/></g><g fill="#ffffff" fill-opacity="1"><g transform="translate(233.589478, 910.438653)"><g><path d="M 8.183594 1.304688 L 13.113281 1.707031 L 15.304688 2.152344 L 17.863281 2.246094 L 19.523438 1.820312 L 20.621094 0.195312 L 21.285156 -6.144531 L 21.738281 -7.773438 L 22.578125 -16.097656 L 23.625 -17.328125 L 25.710938 -17.941406 L 27.824219 -17.503906 L 29.464844 -15.925781 L 30.089844 -14.558594 L 30.429688 -12.828125 L 32.976562 -7.113281 L 33.355469 -5.699219 L 33.921875 -4.5 L 35.042969 -1.382812 L 35.835938 -0.0742188 L 36.429688 1.527344 L 37.085938 2.660156 L 38.394531 4.355469 L 40.105469 5.382812 L 48.09375 6.339844 L 49.539062 6.367188 L 51.105469 6.652344 L 52.816406 6.472656 L 53.4375 4.789062 L 49.703125 -4.777344 L 48.839844 -6.171875 L 46.917969 -10.519531 L 46.191406 -11.738281 L 45.519531 -13.355469 L 45.0625 -14.777344 L 43 -19.304688 L 42.917969 -21.164062 L 44.164062 -22.6875 L 46.878906 -24.421875 L 49.828125 -27.332031 L 51.28125 -29.230469 L 52.019531 -30.582031 L 53.957031 -34.988281 L 55.167969 -39.972656 L 55.214844 -41.570312 L 56.089844 -46.4375 L 55.585938 -48.109375 L 53.941406 -49.046875 L 51.601562 -49.59375 L 48.953125 -49.617188 L 46.625 -50.242188 L 44.246094 -50.472656 L 42.460938 -49.738281 L 41.636719 -48.320312 L 41.410156 -46.582031 L 40.976562 -45.113281 L 40.851562 -43.523438 L 39.550781 -38.46875 L 38.921875 -37.347656 L 38.230469 -35.75 L 36.085938 -33.460938 L 33.0625 -31.84375 L 31.558594 -31.398438 L 29.792969 -31.386719 L 28.148438 -31.117188 L 26.410156 -31.34375 L 25.191406 -32.46875 L 25.011719 -34.175781 L 25.289062 -35.667969 L 25.949219 -41.367188 L 25.976562 -42.808594 L 26.382812 -44.683594 L 26.621094 -47.140625 L 27.199219 -50.359375 L 26.339844 -51.757812 L 24.140625 -52.765625 L 20.242188 -53.675781 L 18.730469 -53.792969 L 17.171875 -54.15625 L 15.421875 -54.304688 L 13.710938 -53.480469 L 12.804688 -52.074219 L 12.46875 -50.75 L 11.375 -41.09375 L 10.929688 -39.546875 L 10.960938 -37.933594 L 9.539062 -28.238281 L 9.601562 -26.867188 L 8.863281 -23.667969 L 8.875 -21.898438 L 8.394531 -18.828125 L 8.367188 -17.386719 L 7.710938 -14.179688 L 7.445312 -10.917969 L 7.203125 -9.664062 L 7.144531 -7.988281 L 6.78125 -6.425781 L 6.414062 -2.378906 L 6.886719 0.171875 Z M 8.183594 1.304688 "/></g></g></g><g fill="#ffffff" fill-opacity="1"><g transform="translate(288.878074, 917.644014)"><g><path d="M 46.703125 5.273438 L 49.738281 5.367188 L 51.222656 5.6875 L 53.6875 5.878906 L 55.949219 5.726562 L 56.394531 3.851562 L 56.039062 1.96875 L 55.171875 -1.089844 L 53.484375 -5.441406 L 52.695312 -8.496094 L 51.425781 -11.519531 L 49.203125 -19.054688 L 48.542969 -20.328125 L 47.914062 -21.917969 L 47.632812 -23.714844 L 47.046875 -24.980469 L 46.710938 -26.296875 L 45.371094 -29.410156 L 44.996094 -31.132812 L 40.976562 -42.710938 L 40.675781 -44.347656 L 39.960938 -45.867188 L 39.640625 -47.347656 L 38.441406 -50.28125 L 37.25 -51.855469 L 34.722656 -52.933594 L 32.09375 -52.339844 L 30.523438 -51.148438 L 29.660156 -49.882812 L 28.933594 -48.359375 L 28.101562 -47.328125 L 24.136719 -40.390625 L 23.132812 -39.296875 L 22.566406 -37.757812 L 21.527344 -36.347656 L 20.898438 -34.972656 L 10.964844 -18.914062 L 10.300781 -17.222656 L 9.378906 -16.121094 L 8.648438 -14.597656 L 6.949219 -12.222656 L 5.414062 -9.183594 L 4.421875 -8.171875 L 3.867188 -6.789062 L 1.9375 -3.792969 L 1.289062 -2.261719 L 1.46875 -0.238281 L 3 0.410156 L 6.105469 0.589844 L 7.671875 0.921875 L 12.125 1.246094 L 14.003906 0.890625 L 15.667969 -0.367188 L 17.378906 -2.824219 L 19.046875 -4.164062 L 20.804688 -4.855469 L 22.285156 -4.453125 L 25.644531 -4.40625 L 27.042969 -4.011719 L 34.8125 -3.242188 L 36.21875 -2.925781 L 37.988281 -2.972656 L 39.636719 -1.910156 L 41 -0.480469 L 41.546875 1.101562 L 41.867188 2.582031 L 43.320312 3.941406 L 45.054688 4.933594 Z M 30.886719 -16.410156 L 29.335938 -16.902344 L 27.496094 -16.941406 L 26.292969 -17.636719 L 26.378906 -19.148438 L 31.035156 -27.292969 L 31.984375 -27.910156 L 33.023438 -27.15625 L 35.792969 -18.039062 L 35.320312 -16.648438 L 34.0625 -16.144531 Z M 30.886719 -16.410156 "/></g></g></g><g fill="#ffffff" fill-opacity="1"><g transform="translate(346.918043, 923.979545)"><g><path d="M 6.238281 -2.722656 L 6.816406 -0.195312 L 9.023438 1.042969 L 10.632812 0.945312 L 13.148438 1.410156 L 14.433594 1.363281 L 16.8125 1.574219 L 19.421875 1.007812 L 20.34375 -1.230469 L 20.582031 -3.929688 L 20.867188 -5.34375 L 20.777344 -7.03125 L 21.386719 -12.09375 L 22.242188 -13.617188 L 23.828125 -14.355469 L 28.375 -13.3125 L 29.839844 -11.824219 L 30.652344 -10.152344 L 31.160156 -8.667969 L 32.613281 -6.136719 L 33.867188 -3.148438 L 34.636719 -1.878906 L 35.128906 -0.238281 L 35.882812 1.191406 L 37.5 2.773438 L 40.132812 3.726562 L 46.410156 4.203125 L 47.902344 4.496094 L 50.527344 4.652344 L 52.097656 4.070312 L 52.730469 2.367188 L 52.011719 0.542969 L 51.160156 -0.652344 L 50.660156 -2.214844 L 48.320312 -6.5 L 47.734375 -7.992188 L 45.5625 -12.34375 L 44.714844 -13.621094 L 44.804688 -15.53125 L 45.675781 -17.214844 L 46.890625 -18.304688 L 48.085938 -19.15625 L 51.675781 -24.4375 L 53.113281 -28.949219 L 53.398438 -33.960938 L 53.304688 -35.566406 L 52.277344 -40.21875 L 51.761719 -41.625 L 51.003906 -42.96875 L 46.902344 -48.132812 L 44.257812 -49.886719 L 41.335938 -51.1875 L 36.90625 -52.621094 L 34.375 -52.925781 L 32.058594 -52.972656 L 27.296875 -53.394531 L 25.738281 -53.851562 L 24.152344 -53.992188 L 22.6875 -53.722656 L 21.101562 -53.863281 L 19.542969 -54.324219 L 17.804688 -54.558594 L 13.085938 -54.578125 L 11.589844 -53.910156 L 10.4375 -51.773438 L 8.902344 -33.597656 L 8.921875 -31.996094 L 8.402344 -28.84375 L 8.324219 -27.089844 L 8.183594 -25.503906 L 8.210938 -23.980469 L 7.917969 -22.488281 L 7.265625 -16.066406 L 7.285156 -14.46875 Z M 24.957031 -27.050781 L 23.445312 -28.066406 L 22.925781 -29.390625 L 23.347656 -34.152344 L 23.308594 -35.515625 L 23.765625 -38.832031 L 24.613281 -40.277344 L 26.335938 -40.765625 L 27.914062 -40.542969 L 31.117188 -40.578125 L 33.296875 -39.90625 L 35.34375 -39.5625 L 36.816406 -39.03125 L 38.582031 -36.398438 L 38.945312 -35.085938 L 39.078125 -32.992188 L 38.628906 -30.632812 L 37.773438 -29.109375 L 36.796875 -28 L 35.859375 -27.363281 L 34.375 -26.855469 L 32.023438 -26.503906 L 30.511719 -26.558594 L 26.714844 -27.054688 Z M 24.957031 -27.050781 "/></g></g></g><g fill="#ffffff" fill-opacity="1"><g transform="translate(402.573938, 928.981949)"><g><path d="M 8.25 0.789062 L 9.855469 0.65625 L 12.945312 1.023438 L 14.710938 0.902344 L 17.242188 1.230469 L 19.53125 0.425781 L 20.582031 -0.941406 L 20.898438 -9.304688 L 21.300781 -11.75 L 21.332031 -13.425781 L 21.683594 -16.277344 L 21.640625 -18.035156 L 21.847656 -21.136719 L 22.613281 -21.800781 L 23.386719 -21.429688 L 24.585938 -20.3125 L 25.460938 -19.058594 L 28.503906 -15.582031 L 29.453125 -14.242188 L 31.460938 -12.03125 L 33.050781 -10.726562 L 34.792969 -10.53125 L 36.460938 -11.617188 L 37.652344 -12.734375 L 38.671875 -13.625 L 41.070312 -16.097656 L 42.238281 -16.820312 L 45.71875 -19.941406 L 46.785156 -20.347656 L 47.339844 -19.113281 L 46.890625 -14.753906 L 46.914062 -11.558594 L 46.550781 -8.46875 L 46.511719 -5.515625 L 46.257812 -4.097656 L 46.179688 -0.511719 L 46.097656 0.683594 L 46.613281 2.550781 L 48.25 3.140625 L 57.847656 4.101562 L 59.574219 3.335938 L 60.679688 1.097656 L 60.71875 -3.050781 L 60.984375 -4.632812 L 62.417969 -28.484375 L 62.691406 -30.222656 L 63.136719 -38.097656 L 63.316406 -39.601562 L 63.386719 -43.03125 L 63.558594 -44.378906 L 63.695312 -47.640625 L 63.953125 -49.140625 L 63.113281 -50.875 L 61.5 -51.859375 L 59.148438 -51.296875 L 57.410156 -50.375 L 53.839844 -47.101562 L 52.722656 -45.898438 L 51.707031 -45.089844 L 50.5 -43.730469 L 43.027344 -37.046875 L 41.90625 -35.761719 L 36.726562 -31.160156 L 35.234375 -30.300781 L 33.605469 -31.046875 L 32.742188 -32.460938 L 31.707031 -33.648438 L 30.394531 -35.574219 L 28.753906 -37.28125 L 22.058594 -45.789062 L 21.007812 -46.816406 L 19.105469 -49.417969 L 17.910156 -50.617188 L 15.984375 -52.902344 L 14.246094 -54.375 L 12.0625 -55.160156 L 10.261719 -54.480469 L 9.277344 -52.871094 L 9.191406 -48.003906 L 8.746094 -44.921875 L 8.808594 -43.480469 L 7.882812 -30.769531 L 7.933594 -29.167969 L 7.160156 -21.15625 L 7.21875 -19.636719 L 5.964844 -2.078125 L 6.730469 -0.347656 Z M 8.25 0.789062 "/></g></g></g><g fill="#ffffff" fill-opacity="1"><g transform="translate(469.630693, 933.401896)"><g><path d="M 46.945312 2.234375 L 49.980469 2.128906 L 51.484375 2.355469 L 53.953125 2.386719 L 56.199219 2.085938 L 56.523438 0.1875 L 56.046875 -1.667969 L 54.984375 -4.664062 L 53.019531 -8.898438 L 52.035156 -11.890625 L 50.570312 -14.828125 L 47.867188 -22.203125 L 47.125 -23.429688 L 46.394531 -24.976562 L 45.996094 -26.75 L 45.332031 -27.976562 L 44.910156 -29.269531 L 43.367188 -32.289062 L 42.886719 -33.984375 L 38.121094 -45.277344 L 37.714844 -46.890625 L 36.902344 -48.363281 L 36.488281 -49.816406 L 35.101562 -52.667969 L 33.8125 -54.160156 L 31.21875 -55.070312 L 28.636719 -54.308594 L 27.144531 -53.019531 L 26.367188 -51.699219 L 25.738281 -50.132812 L 24.972656 -49.050781 L 21.464844 -41.867188 L 20.539062 -40.714844 L 20.070312 -39.140625 L 19.128906 -37.667969 L 18.585938 -36.253906 L 9.714844 -19.582031 L 9.160156 -17.855469 L 8.3125 -16.695312 L 7.6875 -15.128906 L 6.140625 -12.644531 L 4.804688 -9.515625 L 3.882812 -8.441406 L 3.421875 -7.023438 L 1.6875 -3.914062 L 1.140625 -2.339844 L 1.449219 -0.335938 L 3.019531 0.214844 L 6.132812 0.191406 L 7.714844 0.421875 L 12.179688 0.457031 L 14.035156 -0.015625 L 15.609375 -1.382812 L 17.15625 -3.945312 L 18.738281 -5.390625 L 20.445312 -6.191406 L 21.949219 -5.886719 L 25.304688 -6.058594 L 26.726562 -5.753906 L 34.527344 -5.488281 L 35.953125 -5.265625 L 37.714844 -5.429688 L 39.429688 -4.476562 L 40.882812 -3.136719 L 41.53125 -1.589844 L 41.945312 -0.136719 L 43.484375 1.125 L 45.28125 2.003906 Z M 29.757812 -18.378906 L 28.179688 -18.765625 L 26.34375 -18.6875 L 25.09375 -19.300781 L 25.082031 -20.816406 L 29.199219 -29.246094 L 30.109375 -29.925781 L 31.195312 -29.238281 L 34.546875 -20.320312 L 34.164062 -18.902344 L 32.945312 -18.316406 Z M 29.757812 -18.378906 "/></g></g></g><g fill="#ffffff" fill-opacity="1"><g transform="translate(527.937873, 935.941074)"><g><path d="M 21.402344 1.242188 L 27.691406 1.558594 L 29.289062 1.4375 L 30.890625 1.078125 L 32.488281 0.878906 L 34.097656 0.28125 L 35.535156 0.15625 L 37.066406 -0.523438 L 42.558594 -3.65625 L 44.929688 -5.988281 L 45.753906 -7.082031 L 46.671875 -8.8125 L 47.183594 -10.234375 L 47.695312 -11.574219 L 48.269531 -15.546875 L 48.175781 -18.097656 L 47.09375 -22.746094 L 46.25 -24.042969 L 44.238281 -26.480469 L 42.835938 -27.792969 L 41.578125 -28.460938 L 40.164062 -29.371094 L 34 -31.433594 L 32.414062 -31.710938 L 30.824219 -31.832031 L 29.160156 -32.191406 L 26.847656 -32.25 L 22.648438 -33.226562 L 19.738281 -34.734375 L 18.570312 -35.878906 L 18.3125 -38.273438 L 18.761719 -40.414062 L 19.746094 -41.425781 L 20.960938 -42.273438 L 22.253906 -42.957031 L 23.691406 -43.242188 L 26.242188 -43.257812 L 28.785156 -42.878906 L 30.207031 -42.445312 L 31.617188 -41.453125 L 32.945312 -40.304688 L 34.097656 -38.683594 L 35.824219 -37.605469 L 39.574219 -37.832031 L 41.722656 -37.621094 L 43.316406 -37.582031 L 44.746094 -37.386719 L 46.285156 -38.464844 L 46.957031 -39.800781 L 46.675781 -41.320312 L 46.550781 -42.839844 L 44.425781 -47.035156 L 42.730469 -49.46875 L 37.566406 -53.257812 L 33.144531 -54.882812 L 30.054688 -55.59375 L 23.925781 -55.90625 L 22.160156 -55.472656 L 20.566406 -55.429688 L 19.128906 -55.226562 L 16.078125 -54.347656 L 13.332031 -52.820312 L 9.445312 -50.285156 L 6.566406 -46.613281 L 5.023438 -42.265625 L 4.6875 -38.371094 L 4.707031 -35.898438 L 5.1875 -32.703125 L 6.390625 -29.882812 L 9.25 -26.148438 L 14.589844 -23.066406 L 17.433594 -22.042969 L 29.902344 -20.300781 L 32.734375 -18.875 L 33.746094 -17.894531 L 34.175781 -15.890625 L 33.488281 -13.917969 L 32.425781 -12.75 L 29.6875 -11.621094 L 27.214844 -11.523438 L 25.777344 -11.316406 L 21.726562 -11.816406 L 20.390625 -12.566406 L 19.058594 -13.476562 L 16.5 -16.40625 L 14.921875 -17.082031 L 13.484375 -16.960938 L 11.976562 -17.234375 L 5.839844 -17.066406 L 4.390625 -16.464844 L 3.710938 -14.808594 L 3.910156 -13.210938 L 4.191406 -11.609375 L 4.632812 -10.164062 L 6.074219 -7.179688 L 7.164062 -6.117188 L 8.167969 -4.898438 L 10.914062 -3.078125 L 11.996094 -1.855469 L 13.492188 -1.101562 L 15.074219 -0.585938 L 18.152344 0.605469 Z M 21.402344 1.242188 "/></g></g></g><g fill="#ffffff" fill-opacity="1"><g transform="translate(579.277663, 937.235495)"><g><path d="M 5.824219 -2.203125 L 6.773438 -0.683594 L 8.285156 0.199219 L 9.878906 0.128906 L 13.0625 0.304688 L 14.734375 0.152344 L 18.082031 0.246094 L 19.757812 -0.699219 L 20.402344 -2.210938 L 20.570312 -3.722656 L 20.417969 -5.476562 L 20.488281 -19.574219 L 21.214844 -21.246094 L 22.890625 -22.273438 L 32.292969 -22.304688 L 33.964844 -22.058594 L 35.398438 -22.050781 L 36.90625 -21.167969 L 37.695312 -19.648438 L 37.6875 -2.046875 L 38.558594 -0.765625 L 40.863281 0.28125 L 45.003906 0.300781 L 46.597656 0.148438 L 49.863281 0.402344 L 51.382812 -0.625 L 52.34375 -1.972656 L 52.222656 -9.222656 L 52.472656 -11.769531 L 52.238281 -13.046875 L 52.515625 -53.035156 L 51.808594 -54.710938 L 50.21875 -55.355469 L 41.058594 -55.480469 L 38.746094 -54.933594 L 37.9375 -53.027344 L 37.84375 -50 L 37.996094 -48.644531 L 37.820312 -45.378906 L 38.054688 -43.863281 L 37.941406 -37.652344 L 37.058594 -36.0625 L 35.460938 -35.195312 L 33.949219 -35.441406 L 30.839844 -35.136719 L 29.167969 -35.304688 L 27.734375 -35.152344 L 23.035156 -35.253906 L 21.523438 -35.980469 L 20.734375 -37.496094 L 20.664062 -39.25 L 20.671875 -40.921875 L 20.601562 -42.355469 L 20.710938 -48.570312 L 20.878906 -50.320312 L 20.734375 -53.269531 L 20.023438 -54.785156 L 18.355469 -55.671875 L 16.601562 -55.519531 L 8.71875 -55.71875 L 6.960938 -54.929688 L 6.15625 -53.339844 L 5.988281 -51.589844 L 6.117188 -45.375 L 5.949219 -43.78125 L 6.253906 -40.515625 L 6.078125 -37.488281 L 6.148438 -35.578125 L 5.980469 -33.984375 L 5.863281 -10.167969 L 6.097656 -8.734375 Z M 5.824219 -2.203125 "/></g></g></g><g fill="#ffffff" fill-opacity="1"><g transform="translate(638.1421, 937.502968)"><g><path d="M 5.921875 -3.359375 L 6.757812 -0.902344 L 9.082031 0.0976562 L 10.671875 -0.167969 L 13.226562 0.03125 L 14.496094 -0.144531 L 16.886719 -0.183594 L 19.421875 -1.019531 L 20.105469 -3.339844 L 20.0625 -6.050781 L 20.199219 -7.484375 L 19.933594 -9.152344 L 20.011719 -14.253906 L 20.707031 -15.859375 L 22.203125 -16.757812 L 26.835938 -16.191406 L 28.449219 -14.863281 L 29.429688 -13.285156 L 30.089844 -11.863281 L 31.796875 -9.5 L 33.355469 -6.65625 L 34.25 -5.472656 L 34.914062 -3.890625 L 35.808594 -2.550781 L 37.585938 -1.144531 L 40.304688 -0.46875 L 46.59375 -0.648438 L 48.109375 -0.511719 L 50.738281 -0.632812 L 52.242188 -1.371094 L 52.691406 -3.132812 L 51.789062 -4.871094 L 50.8125 -5.972656 L 50.152344 -7.472656 L 47.382812 -11.492188 L 46.644531 -12.917969 L 44.03125 -17.019531 L 43.054688 -18.199219 L 42.945312 -20.109375 L 43.636719 -21.871094 L 44.730469 -23.085938 L 45.832031 -24.058594 L 48.851562 -29.679688 L 49.8125 -34.316406 L 49.578125 -39.332031 L 49.3125 -40.921875 L 47.808594 -45.4375 L 47.148438 -46.78125 L 46.253906 -48.042969 L 41.640625 -52.75 L 38.828125 -54.222656 L 35.785156 -55.210938 L 31.230469 -56.175781 L 28.679688 -56.214844 L 26.371094 -56.019531 L 21.59375 -55.945312 L 19.996094 -56.238281 L 18.402344 -56.214844 L 16.976562 -55.792969 L 15.382812 -55.769531 L 13.785156 -56.0625 L 12.03125 -56.113281 L 7.335938 -55.640625 L 5.917969 -54.824219 L 4.996094 -52.578125 L 5.359375 -34.339844 L 5.542969 -32.75 L 5.355469 -29.558594 L 5.460938 -27.808594 L 5.488281 -26.214844 L 5.667969 -24.707031 L 5.535156 -23.191406 L 5.554688 -16.738281 L 5.738281 -15.148438 Z M 22.007812 -29.5 L 20.398438 -30.351562 L 19.742188 -31.617188 L 19.667969 -36.394531 L 19.488281 -37.746094 L 19.59375 -41.09375 L 20.289062 -42.621094 L 21.949219 -43.28125 L 23.542969 -43.226562 L 26.726562 -43.597656 L 28.964844 -43.152344 L 31.035156 -43.027344 L 32.554688 -42.652344 L 34.585938 -40.214844 L 35.082031 -38.945312 L 35.433594 -36.882812 L 35.234375 -34.488281 L 34.539062 -32.882812 L 33.683594 -31.675781 L 32.816406 -30.945312 L 31.394531 -30.285156 L 29.09375 -29.691406 L 27.582031 -29.589844 L 23.753906 -29.6875 Z M 22.007812 -29.5 "/></g></g></g><g fill="#ffffff" fill-opacity="1"><g transform="translate(693.909771, 936.584692)"><g><path d="M 27.714844 -0.699219 L 39.09375 -1.242188 L 40.738281 -2.015625 L 41.558594 -3.71875 L 41.285156 -11.757812 L 40.359375 -13.320312 L 38.660156 -13.980469 L 36.835938 -13.757812 L 35.316406 -13.945312 L 31.253906 -13.890625 L 28.636719 -13.480469 L 27.039062 -13.585938 L 25.289062 -13.449219 L 23.769531 -13.636719 L 22.023438 -13.417969 L 20.324219 -14.15625 L 19.636719 -15.570312 L 19.46875 -20.585938 L 20.128906 -22.28125 L 21.53125 -23.203125 L 23.917969 -23.363281 L 26.472656 -23.210938 L 29.492188 -23.472656 L 32.761719 -23.503906 L 34.347656 -23.71875 L 36.179688 -23.699219 L 37.75 -24.390625 L 38.253906 -26 L 38.25 -33.175781 L 37.378906 -35.378906 L 35.515625 -36.351562 L 30.816406 -36.191406 L 29.148438 -35.976562 L 25.796875 -36.101562 L 21.1875 -35.785156 L 19.488281 -36.445312 L 18.769531 -38.890625 L 18.6875 -41.359375 L 19.351562 -42.898438 L 21.082031 -43.59375 L 22.597656 -43.566406 L 24.097656 -43.933594 L 35.488281 -44.160156 L 37 -44.289062 L 38.636719 -45.304688 L 39.386719 -46.761719 L 39.253906 -48.351562 L 39.277344 -49.945312 L 38.957031 -54.71875 L 38.191406 -56.207031 L 36.574219 -56.789062 L 34.902344 -56.734375 L 33.460938 -57.003906 L 27.015625 -56.707031 L 25.269531 -56.488281 L 23.671875 -56.59375 L 22.320312 -56.46875 L 20.722656 -56.574219 L 14.199219 -56.191406 L 12.597656 -56.378906 L 11.097656 -56.007812 L 9.660156 -56.117188 L 8.070312 -55.90625 L 6.476562 -55.929688 L 4.828125 -55.238281 L 4.007812 -53.535156 L 4.269531 -50.515625 L 4.140625 -47.246094 L 4.4375 -45.5 L 4.542969 -37.695312 L 4.839844 -36.03125 L 4.730469 -34.511719 L 4.871094 -27.980469 L 5.160156 -26.554688 L 5.515625 -13.65625 L 5.40625 -12.136719 L 5.699219 -10.554688 L 5.648438 -5.054688 L 5.867188 -3.308594 L 6.574219 -1.179688 L 9 -0.226562 L 14.734375 -0.339844 L 16.480469 -0.558594 L 17.914062 -0.527344 L 21.171875 -0.875 L 22.695312 -0.609375 L 24.527344 -0.589844 L 26.117188 -0.804688 Z M 27.714844 -0.699219 "/></g></g></g><g fill="#ffffff" fill-opacity="1"><g transform="translate(739.999825, 935.044451)"><g><path d="M 21.4375 -0.382812 L 27.730469 -0.542969 L 29.3125 -0.785156 L 30.882812 -1.265625 L 32.460938 -1.585938 L 34.019531 -2.300781 L 35.445312 -2.535156 L 36.917969 -3.328125 L 42.160156 -6.867188 L 44.347656 -9.371094 L 45.085938 -10.527344 L 45.871094 -12.320312 L 46.273438 -13.777344 L 46.679688 -15.15625 L 46.953125 -19.15625 L 46.664062 -21.695312 L 45.234375 -26.246094 L 44.296875 -27.476562 L 42.105469 -29.757812 L 40.609375 -30.957031 L 39.300781 -31.527344 L 37.824219 -32.328125 L 31.523438 -33.917969 L 29.917969 -34.078125 L 28.324219 -34.074219 L 26.636719 -34.308594 L 24.328125 -34.1875 L 20.070312 -34.847656 L 17.050781 -36.128906 L 15.800781 -37.179688 L 15.359375 -39.550781 L 15.648438 -41.71875 L 16.550781 -42.804688 L 17.699219 -43.738281 L 18.933594 -44.519531 L 20.351562 -44.914062 L 22.890625 -45.121094 L 25.453125 -44.933594 L 26.90625 -44.609375 L 28.386719 -43.730469 L 29.796875 -42.683594 L 31.070312 -41.15625 L 32.875 -40.210938 L 36.597656 -40.71875 L 38.753906 -40.671875 L 40.34375 -40.753906 L 41.785156 -40.667969 L 43.238281 -41.859375 L 43.804688 -43.242188 L 43.410156 -44.738281 L 43.175781 -46.242188 L 40.734375 -50.265625 L 38.863281 -52.5625 L 33.421875 -55.953125 L 28.890625 -57.234375 L 25.757812 -57.710938 L 19.621094 -57.558594 L 17.898438 -56.988281 L 16.308594 -56.828125 L 14.890625 -56.515625 L 11.914062 -55.40625 L 9.292969 -53.675781 L 5.609375 -50.855469 L 3.015625 -46.976562 L 1.808594 -42.527344 L 1.769531 -38.617188 L 1.976562 -36.152344 L 2.695312 -33 L 4.109375 -30.28125 L 7.242188 -26.773438 L 12.800781 -24.105469 L 15.714844 -23.296875 L 28.277344 -22.507812 L 31.210938 -21.300781 L 32.292969 -20.398438 L 32.875 -18.433594 L 32.339844 -16.414062 L 31.367188 -15.167969 L 28.722656 -13.835938 L 26.265625 -13.550781 L 24.84375 -13.238281 L 20.769531 -13.425781 L 19.378906 -14.074219 L 17.980469 -14.878906 L 15.210938 -17.609375 L 13.585938 -18.164062 L 12.160156 -17.933594 L 10.636719 -18.09375 L 4.527344 -17.460938 L 3.128906 -16.75 L 2.578125 -15.046875 L 2.898438 -13.46875 L 3.296875 -11.894531 L 3.847656 -10.488281 L 5.511719 -7.621094 L 6.679688 -6.644531 L 7.773438 -5.503906 L 10.648438 -3.894531 L 11.824219 -2.757812 L 13.371094 -2.121094 L 14.988281 -1.726562 L 18.144531 -0.769531 Z M 21.4375 -0.382812 "/></g></g></g><g fill="#ffffff" fill-opacity="1"><g transform="translate(791.290223, 932.447174)"><g><path d="M 5.640625 -2.636719 L 6.703125 -1.195312 L 8.273438 -0.429688 L 9.859375 -0.621094 L 13.046875 -0.6875 L 14.707031 -0.964844 L 18.046875 -1.121094 L 19.648438 -2.195312 L 20.175781 -3.75 L 20.230469 -5.269531 L 19.945312 -7.007812 L 18.945312 -21.070312 L 19.542969 -22.789062 L 21.140625 -23.941406 L 30.507812 -24.6875 L 32.195312 -24.566406 L 33.625 -24.667969 L 35.195312 -23.902344 L 36.097656 -22.449219 L 37.425781 -4.894531 L 38.390625 -3.683594 L 40.765625 -2.816406 L 44.898438 -3.109375 L 46.476562 -3.378906 L 49.75 -3.375 L 51.1875 -4.515625 L 52.046875 -5.933594 L 51.371094 -13.152344 L 51.429688 -15.710938 L 51.101562 -16.964844 L 48.347656 -56.859375 L 47.515625 -58.476562 L 45.878906 -59 L 36.738281 -58.429688 L 34.472656 -57.710938 L 33.8125 -55.746094 L 33.949219 -52.722656 L 34.203125 -51.382812 L 34.277344 -48.113281 L 34.621094 -46.621094 L 34.980469 -40.417969 L 34.222656 -38.765625 L 32.695312 -37.777344 L 31.167969 -37.910156 L 28.089844 -37.371094 L 26.410156 -37.414062 L 24.992188 -37.152344 L 20.296875 -36.898438 L 18.738281 -37.507812 L 17.835938 -38.960938 L 17.632812 -40.703125 L 17.515625 -42.371094 L 17.332031 -43.796875 L 16.972656 -50 L 17.007812 -51.757812 L 16.640625 -54.6875 L 15.816406 -56.144531 L 14.085938 -56.902344 L 12.351562 -56.617188 L 4.472656 -56.21875 L 2.78125 -55.300781 L 2.097656 -53.652344 L 2.0625 -51.894531 L 2.664062 -45.707031 L 2.617188 -44.109375 L 3.167969 -40.871094 L 3.222656 -37.84375 L 3.4375 -35.941406 L 3.390625 -34.339844 L 5.078125 -10.582031 L 5.417969 -9.167969 Z M 5.640625 -2.636719 "/></g></g></g><g fill="#ffffff" fill-opacity="1"><g transform="translate(849.94891, 928.212163)"><g><path d="M 20.722656 -1.699219 L 26.023438 -2.335938 L 28.253906 -3.335938 L 28.847656 -5.625 L 28.714844 -9.773438 L 28.207031 -12.765625 L 28.214844 -14.449219 L 27.851562 -17.613281 L 27.882812 -19.054688 L 27.488281 -20.78125 L 26.5 -33.566406 L 26.113281 -35.214844 L 25.730469 -42.136719 L 26.152344 -44.574219 L 27.574219 -45.660156 L 30.65625 -46.097656 L 33.625 -45.964844 L 35.269531 -46.351562 L 36.707031 -46.398438 L 37.976562 -47.394531 L 38.773438 -49.226562 L 38.175781 -56.769531 L 37.160156 -58.277344 L 35.558594 -59.175781 L 30.640625 -58.734375 L 29.121094 -58.757812 L 27.476562 -58.367188 L 25.953125 -58.390625 L 19.554688 -57.5 L 17.941406 -57.671875 L 16.425781 -57.617188 L 14.78125 -57.230469 L 13.019531 -57.230469 L 11.621094 -56.785156 L 6.917969 -56.605469 L 4.480469 -56.144531 L -1.101562 -55.964844 L -2.539062 -55.035156 L -3.324219 -53.125 L -3.105469 -51.546875 L -2.90625 -47.566406 L -2.527344 -45.121094 L -1.6875 -43.757812 L -0.1875 -43.089844 L 1.386719 -43.390625 L 8.9375 -43.910156 L 10.515625 -43.25 L 11.53125 -41.742188 L 11.601562 -39.191406 L 11.957031 -36.984375 L 12.035156 -35.230469 L 12.257812 -33.648438 L 12.296875 -31.414062 L 13.597656 -19.613281 L 13.578125 -18.011719 L 14.078125 -11.578125 L 14.386719 -9.929688 L 14.71875 -5.320312 L 14.695312 -3.796875 L 15.882812 -2.144531 L 18.253906 -1.558594 Z M 20.722656 -1.699219 "/></g></g></g><g fill="#ffffff" fill-opacity="1"><g transform="translate(894.806682, 924.247985)"><g><path d="M 5.539062 -2.84375 L 6.652344 -1.441406 L 8.253906 -0.734375 L 9.828125 -0.984375 L 13.011719 -1.171875 L 14.660156 -1.507812 L 17.992188 -1.789062 L 19.554688 -2.921875 L 20.023438 -4.496094 L 20.019531 -6.015625 L 19.671875 -7.742188 L 18.152344 -21.757812 L 18.683594 -23.5 L 20.234375 -24.710938 L 29.574219 -25.800781 L 31.261719 -25.746094 L 32.6875 -25.898438 L 34.285156 -25.191406 L 35.242188 -23.773438 L 37.21875 -6.28125 L 38.226562 -5.105469 L 40.632812 -4.328125 L 44.753906 -4.773438 L 46.320312 -5.101562 L 49.59375 -5.21875 L 50.984375 -6.410156 L 51.789062 -7.859375 L 50.851562 -15.050781 L 50.8125 -17.609375 L 50.4375 -18.851562 L 46.207031 -58.613281 L 45.3125 -60.199219 L 43.660156 -60.660156 L 34.542969 -59.753906 L 32.308594 -58.949219 L 31.722656 -56.964844 L 31.96875 -53.945312 L 32.273438 -52.617188 L 32.46875 -49.351562 L 32.867188 -47.871094 L 33.457031 -41.6875 L 32.757812 -40.007812 L 31.269531 -38.964844 L 29.738281 -39.039062 L 26.683594 -38.390625 L 25.003906 -38.367188 L 23.597656 -38.054688 L 18.914062 -37.625 L 17.332031 -38.175781 L 16.378906 -39.59375 L 16.109375 -41.328125 L 15.929688 -42.992188 L 15.695312 -44.410156 L 15.105469 -50.59375 L 15.074219 -52.355469 L 14.597656 -55.265625 L 13.722656 -56.695312 L 11.964844 -57.382812 L 10.242188 -57.039062 L 2.382812 -56.34375 L 0.726562 -55.363281 L 0.105469 -53.695312 L 0.136719 -51.933594 L 0.964844 -45.777344 L 0.980469 -44.175781 L 1.648438 -40.960938 L 1.816406 -37.933594 L 2.101562 -36.042969 L 2.113281 -34.441406 L 4.683594 -10.761719 L 5.074219 -9.363281 Z M 5.539062 -2.84375 "/></g></g></g><g fill="#ffffff" fill-opacity="1"><g transform="translate(953.340494, 917.89197)"><g><path d="M 46.628906 -5.886719 L 49.597656 -6.511719 L 51.121094 -6.550781 L 53.558594 -6.945312 L 55.71875 -7.628906 L 55.710938 -9.554688 L 54.921875 -11.300781 L 53.359375 -14.070312 L 50.691406 -17.898438 L 49.207031 -20.679688 L 47.257812 -23.320312 L 43.324219 -30.117188 L 42.382812 -31.199219 L 41.398438 -32.597656 L 40.695312 -34.273438 L 39.832031 -35.367188 L 39.195312 -36.570312 L 37.15625 -39.277344 L 36.386719 -40.867188 L 29.75 -51.167969 L 29.070312 -52.6875 L 28.019531 -53.996094 L 27.359375 -55.359375 L 25.5 -57.929688 L 23.972656 -59.175781 L 21.265625 -59.628906 L 18.847656 -58.429688 L 17.601562 -56.902344 L 17.0625 -55.46875 L 16.714844 -53.816406 L 16.148438 -52.617188 L 13.929688 -44.941406 L 13.214844 -43.644531 L 13.027344 -42.011719 L 12.351562 -40.398438 L 12.0625 -38.914062 L 6.195312 -20.964844 L 5.949219 -19.164062 L 5.3125 -17.878906 L 4.964844 -16.226562 L 3.871094 -13.515625 L 3.09375 -10.199219 L 2.371094 -8.980469 L 2.160156 -7.507812 L 0.988281 -4.144531 L 0.71875 -2.503906 L 1.371094 -0.578125 L 3.011719 -0.308594 L 6.074219 -0.867188 L 7.671875 -0.914062 L 12.074219 -1.648438 L 13.820312 -2.433594 L 15.136719 -4.050781 L 16.222656 -6.84375 L 17.527344 -8.539062 L 19.074219 -9.621094 L 20.605469 -9.582031 L 23.882812 -10.328125 L 25.335938 -10.273438 L 33.066406 -11.355469 L 34.507812 -11.382812 L 36.214844 -11.847656 L 38.066406 -11.203125 L 39.730469 -10.132812 L 40.636719 -8.722656 L 41.296875 -7.363281 L 43.03125 -6.382812 L 44.949219 -5.828125 Z M 26.144531 -23.230469 L 24.523438 -23.34375 L 22.726562 -22.949219 L 21.390625 -23.335938 L 21.117188 -24.828125 L 23.726562 -33.839844 L 24.5 -34.664062 L 25.6875 -34.175781 L 30.527344 -25.96875 L 30.398438 -24.503906 L 29.292969 -23.71875 Z M 26.144531 -23.230469 "/></g></g></g></svg>